<svg xmlns="http://www.w3.org/2000/svg" id="messages-medium" fill="currentColor" data-supported-dps="24x24" viewBox="0 0 24 24" data-token-id="339" width="24" height="24" class="_4cd4c865 fead6bf0 _0b0d7057 _6386b0ce" role="img" aria-label="" aria-hidden="true" style="width: 24px; min-width: 24px; height: 24px; min-height: 24px;"><path d="M16 4H8a7 7 0 0 0 0 14h4v4l8.16-5.39A6.78 6.78 0 0 0 23 11a7 7 0 0 0-7-7m-8 8.25A1.25 1.25 0 1 1 9.25 11 1.25 1.25 0 0 1 8 12.25m4 0A1.25 1.25 0 1 1 13.25 11 1.25 1.25 0 0 1 12 12.25m4 0A1.25 1.25 0 1 1 17.25 11 1.25 1.25 0 0 1 16 12.25"></path></svg>
