<svg xmlns="http://www.w3.org/2000/svg" id="people-medium" fill="currentColor" data-supported-dps="24x24" viewBox="0 0 24 24" data-token-id="129" width="24" height="24" class="_4cd4c865 fead6bf0 _0b0d7057 _6386b0ce" role="img" aria-label="" aria-hidden="true" style="width: 24px; min-width: 24px; height: 24px; min-height: 24px;"><path d="M12 16v6H3v-6a3 3 0 0 1 3-3h3a3 3 0 0 1 3 3m5.5-3A3.5 3.5 0 1 0 14 9.5a3.5 3.5 0 0 0 3.5 3.5m1 2h-2a2.5 2.5 0 0 0-2.5 2.5V22h7v-4.5a2.5 2.5 0 0 0-2.5-2.5M7.5 2A4.5 4.5 0 1 0 12 6.5 4.49 4.49 0 0 0 7.5 2"></path></svg>
